# xmcd
# 
# Track frame offsets:
#     150
#     17670
#     42335
#     60077
#     79372
#     98017
#     115845
#     136232
#     158232
#     178912
#     196212
#     212584
#     229015
# 
# Disc length: 3231
# 
# Revision: 24
# Processed by: cddbd v1.5.2PL0 Copyright (c) Steve Scherf et al.
# Submitted via: fre:ac v1.0.27
# 
DISCID=a30c9d0d
DTITLE=Soundtrack - Hope Floats
DYEAR=1998
DGENRE=Soundtrack
TTITLE0=Garth Brooks - To Make You Feel my Love
TTITLE1=Sheryl Crow - In Need
TTITLE2=Rolling Stones - Honest I Do
TTITLE3=Bob Seger and Martina Mcbride - Chances Are
TTITLE4=The Mavericks - All I Get
TTITLE5=Gillian Welch - Paper Wings
TTITLE6=Jonell Mosser - Stop in The Name of Love
TTITLE7=Whiskeytown - Wither, I'm a Flower
TTITLE8=Deana Carter - What Makes You Stay
TTITLE9=Lila Mccann - To Get me to You
TTITLE10=Lyle Lovett - Smile
TTITLE11=Bryan Adams - When You Love Someone
TTITLE12=Trisha Yearwood - To Make You Feel my Love
EXTD=Adding to Confidence
EXTT0=
EXTT1=
EXTT2=
EXTT3=
EXTT4=
EXTT5=
EXTT6=
EXTT7=
EXTT8=
EXTT9=
EXTT10=
EXTT11=
EXTT12=
PLAYORDER=
